<svg width="1920" height="490" viewBox="0 0 1920 490" fill="none" xmlns="http://www.w3.org/2000/svg">
<g clip-path="url(#clip0_63_155)">
<path d="M0 49L160 106.2C320 163 640 278 960 269.5C1280 261 1600 131 1920 106.2C2240 82 2560 163 2880 196C3200 229 3520 212 3840 212.3C4160 212 4480 229 4800 196C5120 163 5440 82 5760 49C6080 16 6400 33 6720 40.8C7040 49 7360 49 7680 98C8000 147 8320 245 8640 294C8960 343 9280 343 9600 334.8C9920 327 10240 310 10560 269.5C10880 229 11200 163 11520 130.7C11840 98 12160 98 12480 106.2C12800 114 13120 131 13440 155.2C13760 180 14080 212 14400 261.3C14720 310 15040 376 15360 408.3C15680 441 16000 441 16320 383.8C16640 327 16960 212 17280 171.5C17600 131 17920 163 18240 187.8C18560 212 18880 229 19200 220.5C19520 212 19840 180 20160 171.5C20480 163 20800 180 21120 171.5C21440 163 21760 131 22080 114.3C22400 98 22720 98 22880 98H23040V490H22880C22720 490 22400 490 22080 490C21760 490 21440 490 21120 490C20800 490 20480 490 20160 490C19840 490 19520 490 19200 490C18880 490 18560 490 18240 490C17920 490 17600 490 17280 490C16960 490 16640 490 16320 490C16000 490 15680 490 15360 490C15040 490 14720 490 14400 490C14080 490 13760 490 13440 490C13120 490 12800 490 12480 490C12160 490 11840 490 11520 490C11200 490 10880 490 10560 490C10240 490 9920 490 9600 490C9280 490 8960 490 8640 490C8320 490 8000 490 7680 490C7360 490 7040 490 6720 490C6400 490 6080 490 5760 490C5440 490 5120 490 4800 490C4480 490 4160 490 3840 490C3520 490 3200 490 2880 490C2560 490 2240 490 1920 490C1600 490 1280 490 960 490C640 490 320 490 160 490H0V49Z" fill="url(#paint0_linear_63_155)"/>
</g>
<defs>
<linearGradient id="paint0_linear_63_155" x1="0" y1="490" x2="0" y2="29.4304" gradientUnits="userSpaceOnUse">
<stop stop-color="#007662"/>
<stop offset="1" stop-color="#007662"/>
</linearGradient>
<clipPath id="clip0_63_155">
<rect width="1920" height="490" fill="white"/>
</clipPath>
</defs>
</svg>
