<svg width="150" height="150" viewBox="0 0 150 150" fill="none" xmlns="http://www.w3.org/2000/svg">
<path d="M70.5831 2.8218C69.1207 1.33819 66.8209 0.0725944 64.7827 0.499795C58.6333 1.78919 52.3795 2.986 46.5857 5.4192C40.4389 8.0004 34.7207 11.5886 29.2615 15.417C28.1217 16.216 27.3193 17.6486 27.1707 19.0336C27.0291 20.3546 28.0365 21.5456 28.4695 22.8016C26.8857 22.1856 25.3577 20.508 23.7179 20.9538C21.5231 21.5504 20.0787 23.7434 18.6105 25.4818C15.5535 29.102 12.5813 32.8466 10.2101 36.9496C1.64392 51.7724 -0.392077 66.1534 0.0585232 83.0204C0.0979232 84.496 0.310123 86.0202 0.920523 87.364C1.34092 88.2894 2.82472 88.568 3.03092 89.5634C3.34212 91.0654 1.96672 92.6164 2.31812 94.1096C3.46172 98.969 5.12932 103.754 7.41492 108.191C8.12652 109.573 9.57973 110.635 11.0645 111.091C12.2107 111.443 13.4175 110.628 14.5939 110.396C13.7419 111.289 12.3475 111.881 12.0379 113.076C11.6891 114.423 12.1721 115.951 12.8387 117.172C14.2331 119.725 16.1375 121.985 18.0837 124.146C20.8171 127.182 23.7181 130.086 26.8385 132.722C44.7087 147.817 69.1807 153.287 91.9124 148.08C96.1682 147.105 100.404 145.891 104.405 144.142C105.581 143.629 106.735 142.648 107.137 141.428C107.593 140.045 106.868 138.527 106.733 137.076C107.636 138.083 108.148 139.706 109.442 140.098C110.856 140.525 112.494 139.931 113.782 139.207C117.458 137.141 120.855 134.577 124.086 131.866C132.745 124.603 139.769 114.659 144.036 104.202C144.565 102.906 145.134 101.323 144.58 100.037C143.955 98.5828 142.15 98.009 140.935 96.9948C142.142 96.9586 146.37 97.767 147.124 95.3116C148.342 91.348 149.189 87.2438 149.571 83.1146C150.054 77.8988 150.17 72.6184 149.707 67.4008C148.809 57.2684 145.393 47.7142 140.605 38.799C139.113 36.0224 137.188 33.4236 134.892 31.2666C130.669 27.3016 123.988 27.8246 119.626 31.2336C108.393 40.013 97.723 49.4906 86.7713 58.619C91.2935 44.3998 96.3385 30.3366 100.338 15.9612C100.966 13.7038 101.191 11.2018 100.592 8.9364C99.3587 4.265 93.48 1.9822 89.5498 1.2764C84.2724 0.328597 78.8485 -0.293806 73.5043 0.141594C72.1877 0.248994 71.5569 1.9284 70.5831 2.8218Z" fill="#0D652D"/>
<path d="M69.9745 36.8119C69.5627 26.4123 69.4677 15.9953 68.7391 5.61307C68.6745 4.69307 67.9849 3.92987 67.6077 3.08827C61.4943 3.68707 55.2291 4.53507 49.5961 6.98707C43.5399 9.62367 37.7989 12.9491 32.0807 16.2563C31.6035 16.5323 28.7993 18.5511 29.7445 20.0229C37.2069 31.6437 45.2045 42.9111 52.9343 54.3551C44.4255 44.5873 36.2945 34.4763 27.4075 25.0515C26.4883 24.0767 24.9657 23.9497 23.7447 23.3989C20.4451 27.4969 16.7063 31.2765 13.8461 35.6927C6.7727 46.6141 2.6923 59.9545 2.0695 72.9455C1.9161 76.1421 2.2565 79.3461 2.5137 82.5361C2.5845 83.4141 2.5069 87.7257 5.0127 87.5661C12.7937 87.0699 20.4883 85.6489 28.2261 84.6903C16.4805 88.1015 16.4805 88.1015 4.7349 91.5127C5.4041 94.5765 5.6687 97.7579 6.7425 100.704C7.7569 103.487 9.5409 105.924 10.9399 108.535C26.9469 101.364 26.9469 101.364 42.9537 94.1929C28.5913 104.183 28.5913 104.183 14.2287 114.173C16.2107 117.051 17.9187 120.139 20.1747 122.807C35.1021 140.462 58.7179 149.529 81.5737 147.554C89.5817 146.862 97.2989 143.912 104.755 140.906C99.2927 124.433 99.2927 124.433 93.8309 107.96C102.108 122.884 102.108 122.884 110.384 137.807C125.942 130.841 136.425 116.289 142.164 100.677C126.761 93.0491 126.761 93.0491 111.358 85.4213C127.751 90.1075 127.751 90.1075 144.143 94.7939C146.481 90.9149 146.904 86.0727 147.199 81.5521C147.515 76.7293 147.623 71.8589 147.11 67.0531C146.069 57.3113 142.607 47.7617 138.032 39.1001C136.939 37.0307 135.742 34.9069 133.979 33.3681C132.407 31.9949 130.428 30.7357 128.343 30.6401C126.063 30.5355 123.674 31.4415 121.848 32.8117C109.431 42.1263 98.2189 52.9701 85.9311 62.4551C85.2531 62.9783 84.2193 62.4967 83.3633 62.5177C88.3467 46.2665 93.9565 30.1945 98.3137 13.7641C98.7897 11.9685 98.7029 9.82007 97.7627 8.21827C96.7881 6.55767 94.9311 5.36007 93.0775 4.84267C87.6069 3.31587 81.9065 2.64227 76.2435 2.21227C75.1623 2.13027 73.3827 2.26447 73.1891 3.33247C71.1905 14.3637 71.0461 25.6521 69.9745 36.8119Z" fill="#34AB53"/>
</svg>
